Coordinates
version=1
nRows=24
nColumns=34
inDegrees=no

Units are S.I. units (second, meters, Newtons, ...)
If the header above contains a line with 'inDegrees', this indicates whether rotational values are in degrees (yes) or radians (no).

endheader
time	pelvis_tilt	pelvis_list	pelvis_rotation	pelvis_tx	pelvis_ty	pelvis_tz	hip_flexion_r	hip_adduction_r	hip_rotation_r	knee_angle_r	ankle_angle_r	subtalar_angle_r	mtp_angle_r	hip_flexion_l	hip_adduction_l	hip_rotation_l	knee_angle_l	ankle_angle_l	subtalar_angle_l	mtp_angle_l	lumbar_extension	lumbar_bending	lumbar_rotation	arm_flex_r	arm_add_r	arm_rot_r	elbow_flex_r	pro_sup_r	arm_flex_l	arm_add_l	arm_rot_l	elbow_flex_l	pro_sup_l
0	0.108211	0.0677068	0.115396	-0.2063	0.858841	-0.244164	0.339785	-0.0733532	-0.151219	0.0177077	0.20298	0.0529247	0.00721008	-0.506737	0.0765868	0.0318555	0.0320703	0.364818	0.0662466	0.0071948	-0.437588	-0.14098	-0.144755	-0.0428742	-0.239298	-0.0475128	0.638168	2.12145	0.00841897	-0.230466	-0.271508	0.730139	2.03214
0.01	0.108672	0.0618367	0.120956	-0.190213	0.865647	-0.245091	0.329532	-0.0635126	-0.150563	0.0195681	0.17836	0.0342519	0.00721504	-0.517449	0.0673015	0.0230861	0.0394394	0.360776	0.0749648	0.00719982	-0.433137	-0.125075	-0.143271	-0.0435256	-0.238293	-0.0552966	0.636082	2.12308	-0.00218252	-0.230941	-0.268074	0.723489	2.02935
0.02	0.109389	0.0533281	0.125793	-0.174209	0.871613	-0.245948	0.321023	-0.0515665	-0.150898	0.0249465	0.151745	0.0154851	0.00722	-0.525395	0.0539909	0.00879133	0.0530992	0.355934	0.0900479	0.00720484	-0.428362	-0.106416	-0.140149	-0.0443092	-0.23812	-0.0623666	0.634237	2.1242	-0.0127845	-0.230657	-0.264428	0.716103	2.02703
0.03	0.110343	0.0422033	0.12989	-0.158294	0.876791	-0.246732	0.314294	-0.0375522	-0.152239	0.0338974	0.123301	-0.00334156	0.00722496	-0.530498	0.0366815	-0.0109173	0.0730846	0.350198	0.111331	0.00720987	-0.423258	-0.0850292	-0.135389	-0.0452193	-0.238785	-0.068718	0.632643	2.12478	-0.0233782	-0.229609	-0.260593	0.707988	2.02523
0.04	0.111453	0.0285433	0.133207	-0.14249	0.881239	-0.24744	0.309469	-0.0215958	-0.154635	0.0465749	0.0935512	-0.0221326	0.00722993	-0.532492	0.0154776	-0.0356424	0.099499	0.343244	0.138225	0.00721489	-0.417795	-0.061002	-0.129001	-0.0462372	-0.240299	-0.0743424	0.631331	2.12479	-0.0339263	-0.227786	-0.256647	0.699162	2.02406
0.05	0.112482	0.0125305	0.135692	-0.126834	0.885014	-0.248076	0.306839	-0.00396662	-0.158143	0.0632022	0.0634853	-0.040717	0.00723489	-0.53085	-0.00937096	-0.0645352	0.132559	0.334422	0.169451	0.00721991	-0.411858	-0.0345348	-0.121026	-0.0473232	-0.242676	-0.0792326	0.630361	2.12412	-0.0443302	-0.225179	-0.252725	0.689665	2.02373
0.06	0.113008	-0.00549229	0.137282	-0.111373	0.888166	-0.248646	0.306856	0.0148792	-0.162779	0.0839758	0.0345585	-0.0588122	0.00723985	-0.524809	-0.0373699	-0.0961607	0.172518	0.322711	0.202839	0.00722493	-0.405233	-0.0060073	-0.111566	-0.0484079	-0.245917	-0.0833751	0.629811	2.12268	-0.0544212	-0.221796	-0.249042	0.679573	2.02457
0.07	0.112458	-0.0249882	0.137906	-0.0961642	0.89074	-0.24916	0.310017	0.0343052	-0.168445	0.108907	0.00852767	-0.0760153	0.00724481	-0.513493	-0.0677125	-0.128477	0.2195	0.306754	0.235302	0.00722996	-0.397629	0.0239804	-0.100795	-0.0493871	-0.249999	-0.0867396	0.629756	2.12038	-0.06397	-0.217682	-0.245881	0.669003	2.02697
0.08	0.110228	-0.0452484	0.137484	-0.0812623	0.892779	-0.249628	0.316657	0.0535792	-0.174855	0.137636	-0.012849	-0.0918676	0.00724977	-0.496138	-0.099297	-0.158998	0.273301	0.285033	0.263072	0.00723498	-0.388767	0.0546327	-0.0889487	-0.0501267	-0.254866	-0.0892725	0.630243	2.11721	-0.0727119	-0.212938	-0.24357	0.658114	2.03134
0.09	0.105862	-0.0654946	0.135945	-0.0667094	0.894339	-0.250056	0.326709	0.0720434	-0.181481	0.169286	-0.0281908	-0.106027	0.00725473	-0.472339	-0.130877	-0.185203	0.333252	0.256188	0.282323	0.00724	-0.378495	0.0850714	-0.0762892	-0.0504808	-0.260429	-0.0909034	0.631282	2.11329	-0.0803826	-0.207722	-0.242423	0.647101	2.038
0.1	0.0992238	-0.0850728	0.133262	-0.052527	0.895488	-0.250438	0.339505	0.089362	-0.187524	0.202402	-0.0368798	-0.118555	0.00725969	-0.442212	-0.161382	-0.20522	0.398258	0.219488	0.290195	0.00724502	-0.366885	0.114547	-0.0630369	-0.05033	-0.266577	-0.091575	0.632857	2.10886	-0.0867561	-0.202249	-0.242657	0.636172	2.04716
0.11	0.0905035	-0.103558	0.129491	-0.0387157	0.896313	-0.250763	0.353881	0.105581	-0.192067	0.2351	-0.039166	-0.129941	0.00726465	-0.406299	-0.19012	-0.218152	0.467046	0.175198	0.285341	0.00725004	-0.354208	0.142549	-0.049364	-0.0495945	-0.273178	-0.0912657	0.634936	2.10429	-0.0916621	-0.196785	-0.244321	0.625536	2.0588
0.12	0.0800774	-0.120793	0.124821	-0.0252664	0.896903	-0.251016	0.368487	0.121049	-0.194318	0.265383	-0.0360348	-0.140951	0.00726961	-0.365182	-0.21692	-0.224161	0.538624	0.124829	0.268141	0.00725507	-0.340778	0.168851	-0.0354388	-0.0482361	-0.280081	-0.0900053	0.637469	2.1	-0.0949926	-0.19163	-0.247259	0.615407	2.07268
0.13	0.0684572	-0.136733	0.119548	-0.012166	0.897347	-0.251188	0.381991	0.136145	-0.193784	0.291495	-0.0288785	-0.152297	0.00727457	-0.319553	-0.241816	-0.224057	0.612048	0.0709717	0.240245	0.00726009	-0.326963	0.193346	-0.0214542	-0.0462229	-0.287108	-0.087879	0.64038	2.09639	-0.0966794	-0.187106	-0.251103	0.605995	2.08835
0.14	0.0562221	-0.151318	0.11405	0.000595969	0.897729	-0.251286	0.393253	0.151056	-0.190393	0.312214	-0.0191423	-0.16436	0.00727953	-0.270198	-0.264802	-0.218882	0.686321	0.0169956	0.204039	0.00726511	-0.313159	0.215928	-0.00766043	-0.0435048	-0.294058	-0.0850215	0.643565	2.09374	-0.0966841	-0.183537	-0.25531	0.597516	2.10515
0.15	0.04395	-0.164409	0.108768	0.0130259	0.898123	-0.251328	0.40146	0.16567	-0.184539	0.327001	-0.00804445	-0.177034	0.00728449	-0.217937	-0.285692	-0.209601	0.760371	-0.0333696	0.162198	0.00727013	-0.299756	0.236447	0.00561612	-0.0400038	-0.300719	-0.0816008	0.646892	2.09217	-0.0950032	-0.181213	-0.259228	0.590199	2.12234
0.16	0.0321427	-0.175796	0.104181	0.0251276	0.89859	-0.251353	0.406163	0.179574	-0.177018	0.336012	0.0035786	-0.189719	0.00728945	-0.163579	-0.304088	-0.19694	0.83309	-0.0765252	0.117346	0.00727515	-0.287116	0.254704	0.0179811	-0.0356155	-0.306887	-0.0777923	0.650218	2.09163	-0.0916827	-0.180358	-0.262207	0.584296	2.13911
0.17	0.0212318	-0.185255	0.100755	0.0369032	0.899172	-0.251403	0.407264	0.192159	-0.168887	0.33995	0.0152951	-0.201463	0.00729441	-0.107871	-0.319428	-0.18137	0.903379	-0.109497	0.0718446	0.00728017	-0.275534	0.270495	0.0290077	-0.0302209	-0.312395	-0.0737486	0.653399	2.09194	-0.0868364	-0.181099	-0.263694	0.58007	2.15476
0.18	0.0115471	-0.192597	0.0988816	0.0483458	0.899903	-0.251521	0.404928	0.202779	-0.161263	0.339853	0.0269947	-0.211184	0.00729937	-0.0515053	-0.331114	-0.163193	0.970195	-0.130343	0.0276818	0.00728519	-0.265227	0.283675	0.0382956	-0.0237042	-0.317135	-0.0695759	0.656314	2.09284	-0.0806581	-0.183449	-0.263328	0.577786	2.16869
0.19	0.0033093	-0.197724	0.098821	0.0594655	0.900798	-0.251744	0.399473	0.210914	-0.155108	0.336845	0.0387494	-0.217918	0.00730433	0.00486741	-0.338642	-0.142681	1.03258	-0.138403	-0.0135634	0.00729021	-0.256345	0.29421	0.0455395	-0.0159717	-0.321064	-0.0653205	0.658886	2.09406	-0.0734221	-0.187297	-0.260989	0.577678	2.18051
0.2	-0.00336519	-0.200668	0.100644	0.0702841	0.901859	-0.252095	0.391271	0.216299	-0.151054	0.331923	0.0506688	-0.221039	0.00730929	0.0606114	-0.34172	-0.120208	1.08968	-0.134325	-0.0507131	0.00729523	-0.248974	0.302188	0.0505933	-0.00697023	-0.324212	-0.060971	0.661101	2.09536	-0.0654673	-0.192429	-0.256806	0.57992	2.18998
0.21	-0.00845611	-0.201591	0.104201	0.0808314	0.903081	-0.252574	0.380663	0.218982	-0.149283	0.325819	0.0627913	-0.22038	0.00731425	0.115092	-0.340346	-0.0963438	1.14075	-0.119886	-0.0829597	0.00730025	-0.243154	0.307817	0.0535139	0.0033001	-0.326664	-0.0564704	0.663014	2.09659	-0.0571672	-0.198552	-0.251128	0.58459	2.19698
0.22	-0.0120284	-0.200761	0.109119	0.0911453	0.904452	-0.253164	0.367928	0.219307	-0.149507	0.318951	0.0750331	-0.216262	0.0073192	0.167686	-0.334827	-0.0718716	1.18522	-0.0976442	-0.109825	0.00730527	-0.238881	0.311379	0.0545751	0.0147798	-0.328543	-0.051735	0.664756	2.09761	-0.0488907	-0.205333	-0.244456	0.591641	2.20148
0.23	-0.0142206	-0.198509	0.11483	0.10127	0.905952	-0.253825	0.353276	0.217842	-0.151035	0.311454	0.0871986	-0.209403	0.00732416	0.217809	-0.32575	-0.0477508	1.22261	-0.0704961	-0.131118	0.00731029	-0.236114	0.313182	0.054245	0.0273519	-0.32999	-0.0466722	0.666517	2.09834	-0.0409599	-0.212435	-0.237374	0.600888	2.20346
